<?xml version="1.0" encoding="UTF-8"?>
<svg id="Layer_1" data-name="Layer 1" xmlns="http://www.w3.org/2000/svg" xmlns:xlink="http://www.w3.org/1999/xlink" viewBox="0 0 267.34 410.62">
  <defs>
    <style>
      .cls-1 {
        fill: url(#radial-gradient);
      }

      .cls-1, .cls-2 {
        stroke-width: 0px;
      }
    </style>
    <radialGradient id="radial-gradient" cx="135.79" cy="302.08" fx="135.79" fy="302.08" r="110.29" gradientUnits="userSpaceOnUse">
      <stop offset="0" stop-color="#2e3192"/>
      <stop offset="0" stop-color="#34348f"/>
      <stop offset=".49" stop-color="#ac8cb5"/>
      <stop offset="1" stop-color="#f7931e"/>
    </radialGradient>
  </defs>
  <polygon class="cls-1" points="17.79 219.08 80.29 246.21 253.79 200.08 238.79 387.08 149.79 404.08 100.79 380.08 17.79 219.08"/>
  <path class="cls-2" d="m245.79,164.08c-2.24-6.78-2.33-12.85-2-17-16.21.98-49.38.63-84-18-14.85-7.99-26.25-17.34-34.59-25.55-4.14-16.82-8.27-33.64-12.41-50.45,2.64-1.59,6.92-4.69,10-10,5.97-10.32,5.7-26.06-4-35-6.79-6.26-20.44-11.25-28-4-5.19,4.97-6.12,14.36-2,23,1-.33,2-.67,3-1,0-11,0-17,12-17,15.3,0,19.42,27.29,10,36-4.69,4.34-12.97,2.73-16,2,2.32,2.86,5.23,6.86,8,12,0,0,1.04,1.93,2,4,2.62,5.63,6.19,22.72,9.1,46.34-8.01,14.41-20.12,32.28-38.1,49.66-29.14,28.17-59.81,41.62-78,48,15.51,21.71,31.42,46.03,47,73,21.08,36.5,37.75,71.3,51,103,16.67,9,33.33,18,50,27,30-7.67,60-15.33,90-23,6.48-47.69,13.14-95.36,20-143,2.64-18.33,5.3-36.67,8-55-3.78-2.16-15.97-9.78-21-25Zm-145,216c-11.95-26.26-24.91-53.31-39-81-12.93-25.42-25.98-49.76-39-73,17.33,8.33,34.67,16.67,52,25,21,48.67,42,97.33,63,146-12.33-5.67-24.67-11.33-37-17Zm132,1l-83,23-65.66-149,166.66-46-18,172Z"/>
</svg>