<?xml version="1.0" encoding="UTF-8"?>
<svg id="Layer_1" data-name="Layer 1" xmlns="http://www.w3.org/2000/svg" viewBox="0 0 419.5 498.44">
  <defs>
    <style>
      .cls-1, .cls-2 {
        stroke-width: 0px;
      }

      .cls-2 {
        fill: #fbb03b;
      }
    </style>
  </defs>
  <path class="cls-1" d="m345.5,103.62C288.85,71.12,244,33.62,210,0c-15.82,15.28-18.86,20.03-59.42,51.41-37.67,29.14-68.65,47.1-76.58,51.65-25.96,14.89-50.87,26.7-74,36.14,6.48,39.47,12.52,80.25,18,122.3,8.69,66.7,15.22,130.93,20,192.39,72.17,14.86,144.33,29.71,216.5,44.57h16c37-14.67,74-29.33,111-44,4.78-61.45,11.31-125.69,20-192.39,5.48-42.05,11.52-82.83,18-122.3-23.13-9.43-48.04-21.24-74-36.14Z"/>
  <path class="cls-2" d="m332.05,115.59c-51.17-29.35-91.67-63.23-122.38-93.59-13.75,13.28-31.65,29.4-53.67,46.43-34.02,26.32-62,42.54-69.16,46.65-23.45,13.45-45.94,24.12-66.84,32.64,6.03,35.47,11.51,72.31,16.26,110.46,8.25,66.34,13.4,129.59,16.24,189.27,67.33,14,134.67,28,202,42h16c32.67-13,65.33-26,98-39,1.65-59.73,5.98-123.88,14.13-191.76,4.61-38.39,10.11-75.24,16.26-110.46-20.89-8.52-43.39-19.19-66.84-32.64Z"/>
  <path class="cls-1" d="m254.18,498.44h16.26c2.4-67.54,5.67-138.13,10.03-211.44,2.75-46.21,5.78-91.03,9.03-134.41-11.6-10.36-25.73-22.17-37.12-39.71-15.88-24.44-33.88-66.44-42.97-108.88-.8,1.7-1.98,4.19-3.42,7.15-1.46,2.99-2.65,5.25-3.6,6.99,0,0-3.72,2.53-2.97,6.12,1.08,5.17,25.08,79.17,73.82,143.37-6.35,110.27-12.71,220.54-19.06,330.81Z"/>
  <path class="cls-1" d="m15.5,159.44c88.43,7.73,176.86,15.46,265.29,23.19,1.49-3.95,2.98-7.89,4.47-11.84-29.56-.17-71.27-2.92-116.12-14.7-9.34-2.45-17.95-5.07-25.86-7.75-10.11.97-20.54,1.73-31.26,2.24-37.13,1.77-71.5.23-102.51-3.15l6,12Z"/>
  <path class="cls-1" d="m287.37,181.28c42.01-7.7,84.01-15.41,126.02-23.11-.14-4.1-.27-8.2-.41-12.31-13.54,4.92-33.17,9.44-56.1,5.68-4.77-.78-9.25-1.85-13.42-3.1-4.42,2.69-9.03,5.23-13.82,7.57-16.6,8.12-32.62,12.55-47.49,14.6l5.23,10.66Z"/>
</svg>